<?xml version="1.0" encoding="utf-8"?>
<!-- Generator: Adobe Illustrator 25.3.1, SVG Export Plug-In . SVG Version: 6.00 Build 0)  -->
<svg version="1.1" id="Vrstva_1" xmlns="http://www.w3.org/2000/svg" xmlns:xlink="http://www.w3.org/1999/xlink" x="0px" y="0px"
	 viewBox="0 0 2189.3 460.9" style="enable-background:new 0 0 2189.3 460.9;" xml:space="preserve">
<style type="text/css">
	.st0{fill:#FFFFFF;}
	.st1{enable-background:new    ;}
</style>
<path class="st0" d="M385.5,141.7c0-21.6-17.1-33.9-37.6-36.6c-8.9-1.1-21-2-29.7-3.2c-8.1-1.2-13.9-5.5-13.9-13.7
	c-0.1-4.1,1.6-8,4.6-10.7c5.6-5.3,14.5-7,22.2-7c7.3,0,16.4,2.5,20.8,6.8c3.4,3.3,5.6,7.7,6,12.5h25.5c-0.2-10.5-5.8-19.8-13.9-26.9
	c-9.3-8-23.5-12.3-38.2-12.3c-16,0-31.1,5.2-40.1,13.4c-7.1,6.6-11.9,15-11.9,25c0,21.1,15.8,32.5,34.7,35.3
	c9.1,1.4,21,1.8,30.3,3.4c8.5,1.4,16.2,5.7,16.2,15c0,6.1-2.3,9.1-5.4,12.1c-5.2,4.9-14.3,6.8-23.7,6.8c-7.9,0-17.2-1.4-23-6.8
	c-4.4-4-7-9.6-7.2-15.5h-25.4c0,11.9,6.2,22.6,14.3,29.4c11.2,9.4,26.4,13,40.9,13c16.8,0,32.8-3.9,43.2-13.6
	C381.6,161.4,385.7,151.7,385.5,141.7"/>
<path class="st0" d="M189.9,92.8c0-25.2-16.1-42-46.3-42H87.9v131.3h23.7v-47h32C173.8,135.1,189.9,118,189.9,92.8 M165.9,93
	c0,12.6-7.2,21.1-23.1,21.1h-31.1V71.7h31.1C158.6,71.7,165.8,80.4,165.9,93"/>
<path class="st0" d="M168.3,289.5c-4.9-3.8-10.4-6.7-16.3-8.6c-14.8-4.6-30.7-3.8-45,2.1c-7.3,3.2-13.9,7.9-19.2,13.9
	c-5.3,6.1-9.4,13.2-12,20.8c-2.8,8.3-4.3,17.1-4.2,25.9c-0.1,8.6,1.3,17.2,4.2,25.3c2.6,7.5,6.7,14.5,12,20.4s11.9,10.5,19.2,13.6
	c8.1,3.4,16.8,5.1,25.6,4.9c7.2,0.1,14.3-1.1,21-3.5c6.2-2.2,11.8-5.6,16.6-10.1s8.7-9.9,11.5-16c2.9-6.5,4.7-13.4,5.3-20.4h-25.6
	c-1.1,8.3-4.1,15-8.8,20.2c-4.7,5.1-11.6,7.9-20.2,7.9c-5.6,0.1-11.1-1.1-16-3.7c-4.3-2.3-8-5.7-10.7-9.7c-2.8-4.1-4.8-8.7-6-13.6
	c-1.3-5.1-1.9-10.3-1.9-15.5c0-5.4,0.6-10.8,1.8-16.1c1.1-5,3.2-9.7,6-14c2.7-4.1,6.4-7.5,10.7-9.9c4.9-2.6,10.5-3.8,16-3.7
	c6.7,0,13.3,2.2,18.5,6.4c2.5,2,4.6,4.4,6.3,7.1c1.6,2.6,2.7,5.4,3.2,8.4H186c-0.7-6.5-2.7-12.8-5.8-18.5
	C177.2,298,173.2,293.3,168.3,289.5"/>
<path class="st0" d="M292.6,394.3c4.8,4.4,10.5,7.9,16.7,10.1c6.8,2.4,13.9,3.6,21,3.5c8.8,0.1,17.5-1.5,25.6-4.9
	c7.3-3.1,13.8-7.7,19.2-13.6c5.3-6,9.4-12.9,12-20.4c2.8-8.2,4.3-16.7,4.2-25.4c0.1-8.8-1.3-17.6-4.2-25.9
	c-2.6-7.6-6.7-14.7-12-20.8c-5.3-6-11.9-10.7-19.2-13.9c-14.3-5.9-30.2-6.6-45-2.1c-5.9,1.9-11.4,4.8-16.3,8.6
	c-4.8,3.8-8.9,8.6-11.9,14c-3.1,5.7-5.1,12-5.8,18.5h25.5c0.5-3,1.6-5.8,3.2-8.4c1.7-2.7,3.8-5.1,6.3-7.1s5.4-3.7,8.5-4.7
	c3.2-1.1,6.5-1.7,9.9-1.7c5.6-0.1,11.1,1.1,16,3.7c4.3,2.4,8,5.8,10.7,9.9c2.8,4.3,4.8,9,6,14c1.2,5.2,1.9,10.6,1.8,16
	c0,5.2-0.6,10.4-1.9,15.5c-1.2,4.8-3.2,9.4-6,13.6c-2.7,4.1-6.4,7.4-10.7,9.7c-4.9,2.6-10.5,3.8-16,3.7c-8.5,0-15.3-2.7-20.1-7.9
	c-4.8-5.3-7.7-11.9-8.8-20.2h-25.6c0.6,7.1,2.4,14,5.3,20.4C283.9,384.4,287.8,389.8,292.6,394.3"/>
<g class="st1">
	<path class="st0" d="M598.8,140.1c3.8,0,7.3,0.5,10.5,1.6c3.2,1.1,5.9,2.7,8.1,4.7c2.2,2,3.9,4.5,5.1,7.3s1.7,6,1.7,9.3
		c0,6.9-2.3,12.5-6.8,16.7c-4.6,4.2-10.7,6.3-18.5,6.3h-18v22.3h-13.9v-68.4H598.8z M598.8,173.6c3.6,0,6.4-1,8.5-2.9
		s3.1-4.5,3.1-7.7c0-2.2-0.6-4.2-1.7-5.9c-1.2-1.7-2.7-2.9-4.5-3.5s-3.6-1-5.3-1h-18v20.9H598.8z"/>
</g>
<g class="st1">
	<path class="st0" d="M679.5,208.5l-22.6-25.1h-7.2v25.1h-13.9v-68.4h32.8c2.7,0,5.4,0.3,8.2,1c2.8,0.7,5.6,2,8.3,3.9
		c2.7,1.9,4.7,4.4,6,7.5c1.3,3,2,6.1,2,9.2c0,5.6-1.8,10.4-5.3,14.2s-8.3,6.2-14.3,7.1l23,25.4H679.5z M668.6,170.9
		c3.1,0,5.7-0.9,7.7-2.6c2-1.7,3-3.9,3-6.5s-1-4.8-3-6.5c-2-1.7-4.6-2.6-7.7-2.6h-18.9v18.2H668.6z"/>
</g>
<g class="st1">
	<path class="st0" d="M756.5,208.5l-5.9-14.6h-30.2l-6,14.6h-15l29.6-68.4h13l29.6,68.4H756.5z M735.5,157l-10,24.4h19.9L735.5,157z
		"/>
</g>
<g class="st1">
	<path class="st0" d="M845.4,168.6c0.2,2.3,0.3,4.3,0.3,5.9c0,5-0.9,9.6-2.6,14s-4.1,8.1-7.2,11.4s-6.8,5.7-11.1,7.5
		c-4.3,1.8-8.9,2.7-13.8,2.7c-2.4,0-5.1-0.3-8.2-0.9s-6.1-1.7-9.2-3.4c-3.1-1.6-5.9-3.7-8.4-6.1c-2.5-2.4-4.6-5.2-6.2-8.2
		c-1.7-3.1-2.8-6.1-3.4-9.1s-0.9-5.7-0.9-8c0-4.8,0.9-9.4,2.8-13.8c1.8-4.4,4.4-8.2,7.7-11.5c3.3-3.3,7.1-5.8,11.5-7.7
		c4.4-1.8,9-2.8,13.9-2.8c2.7,0,5.5,0.3,8.6,0.9c3.1,0.6,6.2,1.6,9.2,3.1s6,3.6,8.7,6.3c2.7,2.7,4.8,6.2,6.3,10.3l-12.5,4.4
		c-4.1-8-11-11.9-20.4-11.9c-3,0-5.8,0.6-8.5,1.7c-2.7,1.2-5,2.8-7,4.8s-3.5,4.5-4.6,7.2c-1.1,2.8-1.7,5.7-1.7,8.9
		c0,3.1,0.6,6.1,1.7,8.9s2.8,5.3,4.8,7.3c2.1,2,4.5,3.6,7.3,4.8c2.8,1.2,5.7,1.7,8.8,1.7c5.2,0,9.6-1.4,13.3-4.3s6.1-6.7,7.2-11.5
		h-24v-12.7H845.4z"/>
	<path class="st0" d="M916.8,177.9c0,4.7-0.7,9-2.1,13c-1.4,4-3.4,7.4-6,10.3c-2.6,2.9-5.7,5.1-9.4,6.6c-3.6,1.5-7.6,2.3-11.9,2.3
		c-4.4,0-8.5-0.8-12.2-2.3c-3.7-1.5-6.9-3.7-9.6-6.6c-2.7-2.9-4.7-6.3-6.2-10.3c-1.4-4-2.1-8.3-2.1-13v-37.8h13.9v37.8
		c0,5.7,1.5,10.3,4.4,13.7c3,3.4,6.9,5.2,11.8,5.2c4.6,0,8.4-1.7,11.2-5.2s4.3-8,4.3-13.7v-37.8h13.9V177.9z"/>
</g>
<g class="st1">
	<path class="st0" d="M983.5,208.5h-51.9v-68.4h51.7v12.6h-37.9v15.4h34.9v12.3h-34.9V196h38.1V208.5z"/>
</g>
<g class="st1">
	<path class="st0" d="M1055.8,140c3,0.9,5.7,2.2,8.1,3.9c2.3,1.7,4.3,3.8,5.9,6.3c1.6,2.5,2.7,5.2,3.4,8.1l-13.9,2.9
		c-0.2-1.5-0.8-3.1-1.8-4.7s-2.6-3.1-4.7-4.2c-2.1-1.1-4.4-1.7-6.9-1.7c-3.3,0-6,0.8-8.1,2.5s-3.1,3.7-3.1,6c0,1.8,0.5,3.3,1.5,4.5
		c1,1.2,2.8,2,5.3,2.4l14.7,3c5.6,1.2,10.1,3.5,13.2,6.8c3.2,3.3,4.7,7.6,4.7,12.8c0,6.5-2.5,11.8-7.4,15.7s-11.5,5.9-19.7,5.9
		c-3.5,0-7-0.4-10.3-1.3c-3.3-0.9-6.2-2.1-8.8-3.8c-2.6-1.7-4.7-3.8-6.4-6.4c-1.7-2.6-2.7-5.5-3.1-8.8l14.6-3
		c0.9,3.7,2.7,6.4,5.4,8.3c2.7,1.9,6,2.8,10,2.8c2.8,0,5.2-0.5,7.1-1.4s3.3-2.1,4-3.5s1-2.6,1-3.8c0-2-0.6-3.6-1.8-4.7
		c-1.2-1.2-3.2-2.1-6.2-2.7l-14.5-2.8c-5.9-1.2-10.3-3.5-13.4-6.7s-4.6-7.6-4.6-12.9c0-3,0.6-5.8,1.8-8.4c1.2-2.6,3-4.8,5.2-6.6
		s5-3.3,8.3-4.3s6.8-1.5,10.7-1.5C1049.5,138.6,1052.8,139.1,1055.8,140z"/>
</g>
<g class="st1">
	<path class="st0" d="M1132.6,192.8c3.6-2.9,6.1-7.1,7.3-12.9l13.5,2.8c-0.6,3.1-1.6,6.1-2.9,8.9c-1.3,2.8-2.9,5.3-4.8,7.4
		c-1.9,2.1-4.1,4-6.5,5.6c-2.4,1.6-5.2,2.9-8.5,3.9s-6.9,1.6-11,1.6c-4.9,0-9.5-0.9-13.9-2.7c-4.4-1.8-8.2-4.3-11.5-7.6
		c-3.3-3.3-5.9-7.1-7.7-11.5c-1.8-4.4-2.8-9-2.8-13.9c0-4.8,0.9-9.4,2.8-13.8c1.8-4.4,4.4-8.2,7.7-11.5c3.3-3.3,7.1-5.8,11.5-7.7
		c4.4-1.8,9-2.8,13.9-2.8c8.3,0,15.6,2.4,21.8,7.1c6.2,4.8,10.2,11.2,11.9,19.2l-13.5,3.8c-1.2-5.6-3.7-9.9-7.3-12.8
		c-3.6-2.9-7.9-4.3-12.9-4.3c-3,0-5.8,0.6-8.5,1.7c-2.7,1.1-5,2.7-7,4.8s-3.6,4.5-4.7,7.3c-1.1,2.8-1.7,5.7-1.7,8.9
		c0,3.1,0.6,6.1,1.7,8.9c1.1,2.8,2.7,5.2,4.7,7.3s4.4,3.7,7,4.8c2.7,1.2,5.5,1.7,8.5,1.7C1124.7,197.1,1129,195.7,1132.6,192.8z"/>
</g>
<g class="st1">
	<path class="st0" d="M1226.1,208.5h-13.9v-28.1h-32.7v28.1h-13.9v-68.4h13.9v27.8h32.7v-27.8h13.9V208.5z"/>
	<path class="st0" d="M1288.2,141.4c4.4,1.8,8.3,4.4,11.6,7.7s5.9,7.1,7.7,11.5c1.8,4.4,2.8,9,2.8,13.8s-0.9,9.4-2.8,13.8
		c-1.8,4.4-4.4,8.2-7.7,11.4s-7.2,5.8-11.6,7.7s-9.1,2.8-14,2.8s-9.6-0.9-14-2.8c-4.4-1.8-8.3-4.4-11.6-7.7s-5.9-7.1-7.7-11.4
		c-1.8-4.4-2.8-8.9-2.8-13.8s0.9-9.4,2.8-13.8c1.8-4.4,4.4-8.2,7.7-11.5s7.2-5.9,11.6-7.7c4.4-1.8,9.1-2.8,14-2.8
		S1283.8,139.5,1288.2,141.4z M1282.8,195.3c2.7-1.1,5.1-2.7,7.1-4.7s3.6-4.5,4.7-7.2c1.1-2.8,1.7-5.7,1.7-8.9s-0.6-6.1-1.7-8.9
		c-1.1-2.8-2.7-5.3-4.7-7.3s-4.4-3.7-7.1-4.8c-2.7-1.1-5.6-1.7-8.6-1.7s-5.9,0.6-8.6,1.7c-2.7,1.1-5.1,2.7-7.1,4.8s-3.6,4.5-4.7,7.3
		c-1.1,2.8-1.7,5.8-1.7,8.9s0.6,6.1,1.7,8.9c1.1,2.8,2.7,5.2,4.7,7.2s4.4,3.6,7.1,4.7c2.7,1.1,5.6,1.7,8.6,1.7
		S1280.1,196.4,1282.8,195.3z"/>
	<path class="st0" d="M1369.3,141.4c4.4,1.8,8.3,4.4,11.6,7.7s5.9,7.1,7.7,11.5c1.8,4.4,2.8,9,2.8,13.8s-0.9,9.4-2.8,13.8
		c-1.8,4.4-4.4,8.2-7.7,11.4s-7.2,5.8-11.6,7.7s-9.1,2.8-14,2.8s-9.6-0.9-14-2.8c-4.4-1.8-8.3-4.4-11.6-7.7s-5.9-7.1-7.7-11.4
		c-1.8-4.4-2.8-8.9-2.8-13.8s0.9-9.4,2.8-13.8c1.8-4.4,4.4-8.2,7.7-11.5s7.2-5.9,11.6-7.7c4.4-1.8,9.1-2.8,14-2.8
		S1364.9,139.5,1369.3,141.4z M1363.9,195.3c2.7-1.1,5.1-2.7,7.1-4.7s3.6-4.5,4.7-7.2c1.1-2.8,1.7-5.7,1.7-8.9s-0.6-6.1-1.7-8.9
		c-1.1-2.8-2.7-5.3-4.7-7.3s-4.4-3.7-7.1-4.8c-2.7-1.1-5.6-1.7-8.6-1.7s-5.9,0.6-8.6,1.7c-2.7,1.1-5.1,2.7-7.1,4.8s-3.6,4.5-4.7,7.3
		c-1.1,2.8-1.7,5.8-1.7,8.9s0.6,6.1,1.7,8.9c1.1,2.8,2.7,5.2,4.7,7.2s4.4,3.6,7.1,4.7c2.7,1.1,5.6,1.7,8.6,1.7
		S1361.2,196.4,1363.9,195.3z"/>
</g>
<g class="st1">
	<path class="st0" d="M1452.7,208.5h-49.2v-68.4h13.9V196h35.3V208.5z"/>
</g>
<g class="st1">
	<path class="st0" d="M1527.3,141.4c4.4,1.8,8.3,4.4,11.6,7.7c3.3,3.3,5.9,7.1,7.7,11.5c1.8,4.4,2.8,9,2.8,13.8s-0.9,9.4-2.8,13.8
		c-1.8,4.4-4.4,8.2-7.7,11.4c-3.3,3.3-7.2,5.8-11.6,7.7s-9.1,2.8-14,2.8s-9.6-0.9-14-2.8c-4.4-1.8-8.3-4.4-11.6-7.7
		c-3.3-3.3-5.9-7.1-7.7-11.4c-1.8-4.4-2.8-8.9-2.8-13.8s0.9-9.4,2.8-13.8c1.8-4.4,4.4-8.2,7.7-11.5c3.3-3.3,7.2-5.9,11.6-7.7
		c4.4-1.8,9.1-2.8,14-2.8S1522.9,139.5,1527.3,141.4z M1521.9,195.3c2.7-1.1,5.1-2.7,7.1-4.7c2-2,3.6-4.5,4.7-7.2
		c1.1-2.8,1.7-5.7,1.7-8.9s-0.6-6.1-1.7-8.9s-2.7-5.3-4.7-7.3c-2-2.1-4.4-3.7-7.1-4.8c-2.7-1.1-5.6-1.7-8.6-1.7s-5.9,0.6-8.6,1.7
		c-2.7,1.1-5.1,2.7-7.1,4.8c-2,2.1-3.6,4.5-4.7,7.3s-1.7,5.8-1.7,8.9s0.6,6.1,1.7,8.9c1.1,2.8,2.7,5.2,4.7,7.2c2,2,4.4,3.6,7.1,4.7
		c2.7,1.1,5.6,1.7,8.6,1.7S1519.2,196.4,1521.9,195.3z"/>
</g>
<g class="st1">
	<path class="st0" d="M1575.4,169.4h33.2V182h-33.2v26.5h-13.9v-68.4h51v12.6h-37.1V169.4z"/>
</g>
<g class="st1">
	<path class="st0" d="M1692.8,192.8c3.6-2.9,6.1-7.1,7.3-12.9l13.5,2.8c-0.6,3.1-1.6,6.1-2.9,8.9c-1.3,2.8-2.9,5.3-4.8,7.4
		c-1.9,2.1-4.1,4-6.5,5.6c-2.4,1.6-5.2,2.9-8.5,3.9c-3.2,1.1-6.9,1.6-11,1.6c-4.9,0-9.5-0.9-13.9-2.7c-4.4-1.8-8.2-4.3-11.5-7.6
		s-5.9-7.1-7.7-11.5c-1.8-4.4-2.8-9-2.8-13.9c0-4.8,0.9-9.4,2.8-13.8c1.8-4.4,4.4-8.2,7.7-11.5s7.1-5.8,11.5-7.7
		c4.4-1.8,9-2.8,13.9-2.8c8.3,0,15.6,2.4,21.8,7.1c6.2,4.8,10.2,11.2,11.9,19.2l-13.5,3.8c-1.2-5.6-3.7-9.9-7.3-12.8
		s-7.9-4.3-12.9-4.3c-3,0-5.8,0.6-8.5,1.7c-2.7,1.1-5,2.7-7,4.8c-2,2.1-3.6,4.5-4.7,7.3c-1.1,2.8-1.7,5.7-1.7,8.9
		c0,3.1,0.6,6.1,1.7,8.9c1.1,2.8,2.7,5.2,4.7,7.3c2,2.1,4.4,3.7,7,4.8c2.7,1.2,5.5,1.7,8.5,1.7
		C1684.8,197.1,1689.1,195.7,1692.8,192.8z"/>
</g>
<g class="st1">
	<path class="st0" d="M1769.5,208.5l-22.6-25.1h-7.2v25.1h-13.9v-68.4h32.8c2.7,0,5.4,0.3,8.2,1c2.8,0.7,5.6,2,8.3,3.9
		c2.7,1.9,4.7,4.4,6,7.5c1.3,3,2,6.1,2,9.2c0,5.6-1.8,10.4-5.3,14.2s-8.3,6.2-14.3,7.1l23,25.4H1769.5z M1758.5,170.9
		c3.1,0,5.7-0.9,7.7-2.6c2-1.7,3-3.9,3-6.5s-1-4.8-3-6.5c-2-1.7-4.6-2.6-7.7-2.6h-18.9v18.2H1758.5z"/>
</g>
<g class="st1">
	<path class="st0" d="M1847.4,208.5h-51.9v-68.4h51.7v12.6h-37.9v15.4h34.9v12.3h-34.9V196h38.1V208.5z"/>
</g>
<g class="st1">
	<path class="st0" d="M1911.2,208.5l-5.9-14.6h-30.2l-6,14.6h-15l29.6-68.4h13l29.6,68.4H1911.2z M1890.2,157l-10,24.4h19.9
		L1890.2,157z"/>
</g>
<g class="st1">
	<path class="st0" d="M1959.9,152.7v55.8H1946v-55.8h-22.8v-12.6h59.4v12.6H1959.9z"/>
</g>
<g class="st1">
	<path class="st0" d="M1992.7,208.5v-68.4h13.9v68.4H1992.7z"/>
	<path class="st0" d="M2058.6,208.5h-13.4l-29.5-68.4h15.3l20.8,49.8l20.9-49.8h15.3L2058.6,208.5z"/>
</g>
<g class="st1">
	<path class="st0" d="M2149.3,208.5h-51.9v-68.4h51.7v12.6h-37.9v15.4h34.9v12.3h-34.9V196h38.1V208.5z"/>
</g>
<g class="st1">
	<path class="st0" d="M612.7,305.6c3.6-2.9,6.1-7.1,7.3-12.9l13.5,2.8c-0.6,3.1-1.6,6.1-2.9,8.9c-1.3,2.8-2.9,5.3-4.8,7.4
		c-1.9,2.1-4.1,4-6.5,5.6c-2.4,1.6-5.2,2.9-8.5,3.9c-3.2,1.1-6.9,1.6-11,1.6c-4.9,0-9.5-0.9-13.9-2.7c-4.4-1.8-8.2-4.3-11.5-7.6
		c-3.3-3.3-5.9-7.1-7.7-11.5c-1.8-4.4-2.8-9-2.8-13.9c0-4.8,0.9-9.4,2.8-13.8c1.8-4.4,4.4-8.2,7.7-11.5c3.3-3.3,7.1-5.8,11.5-7.7
		c4.4-1.8,9-2.8,13.9-2.8c8.3,0,15.6,2.4,21.8,7.1c6.2,4.8,10.2,11.2,11.9,19.2l-13.5,3.8c-1.2-5.6-3.7-9.9-7.3-12.8
		c-3.6-2.9-7.9-4.3-12.9-4.3c-3,0-5.8,0.6-8.5,1.7c-2.7,1.1-5,2.7-7,4.8c-2,2.1-3.6,4.5-4.7,7.3c-1.1,2.8-1.7,5.7-1.7,8.9
		c0,3.1,0.6,6.1,1.7,8.9c1.1,2.8,2.7,5.2,4.7,7.3c2,2.1,4.4,3.7,7,4.8c2.7,1.2,5.5,1.7,8.5,1.7C604.8,309.8,609.1,308.4,612.7,305.6
		z"/>
</g>
<g class="st1">
	<path class="st0" d="M692.7,254.1c4.4,1.8,8.3,4.4,11.6,7.7c3.3,3.3,5.9,7.1,7.7,11.5c1.8,4.4,2.8,9,2.8,13.8s-0.9,9.4-2.8,13.8
		c-1.8,4.4-4.4,8.2-7.7,11.4c-3.3,3.3-7.2,5.8-11.6,7.7c-4.4,1.8-9.1,2.8-14,2.8s-9.6-0.9-14-2.8s-8.3-4.4-11.6-7.7
		c-3.3-3.3-5.9-7.1-7.7-11.4c-1.8-4.4-2.8-8.9-2.8-13.8s0.9-9.4,2.8-13.8c1.8-4.4,4.4-8.2,7.7-11.5c3.3-3.3,7.2-5.9,11.6-7.7
		s9.1-2.8,14-2.8S688.2,252.3,692.7,254.1z M687.3,308.1c2.7-1.1,5.1-2.7,7.1-4.7c2-2,3.6-4.5,4.7-7.2c1.1-2.8,1.7-5.7,1.7-8.9
		s-0.6-6.1-1.7-8.9c-1.1-2.8-2.7-5.3-4.7-7.3c-2-2.1-4.4-3.7-7.1-4.8c-2.7-1.1-5.6-1.7-8.6-1.7s-5.9,0.6-8.6,1.7
		c-2.7,1.1-5.1,2.7-7.1,4.8c-2,2.1-3.6,4.5-4.7,7.3c-1.1,2.8-1.7,5.8-1.7,8.9s0.6,6.1,1.7,8.9c1.1,2.8,2.7,5.2,4.7,7.2
		c2,2,4.4,3.6,7.1,4.7c2.7,1.1,5.6,1.7,8.6,1.7S684.5,309.2,687.3,308.1z"/>
</g>
<g class="st1">
	<path class="st0" d="M803,321.3h-13.5V282l-21.4,39.3h-6.2L740.3,282v39.3h-13.5v-68.4H739l25.9,47.2l26-47.2h12V321.3z"/>
	<path class="st0" d="M894.3,321.3h-13.5V282l-21.4,39.3h-6.2L831.7,282v39.3h-13.5v-68.4h12.1l25.9,47.2l26-47.2h12V321.3z"/>
	<path class="st0" d="M968.4,290.7c0,4.7-0.7,9-2.1,13c-1.4,4-3.4,7.4-6,10.3c-2.6,2.9-5.7,5.1-9.4,6.6c-3.6,1.5-7.6,2.3-11.9,2.3
		c-4.4,0-8.5-0.8-12.2-2.3c-3.7-1.5-6.9-3.7-9.6-6.6c-2.7-2.9-4.7-6.3-6.2-10.3c-1.4-4-2.1-8.3-2.1-13v-37.8h13.9v37.8
		c0,5.7,1.5,10.3,4.4,13.7c3,3.4,6.9,5.2,11.8,5.2c4.6,0,8.4-1.7,11.2-5.2s4.3-8,4.3-13.7v-37.8h13.9V290.7z"/>
	<path class="st0" d="M1046.4,321.3h-11.6l-37.9-43.9v43.9H983v-68.4h11.6l37.9,45.1v-45.1h13.9V321.3z"/>
	<path class="st0" d="M1061.6,321.3v-68.4h13.9v68.4H1061.6z"/>
</g>
<g class="st1">
	<path class="st0" d="M1136.9,305.6c3.6-2.9,6.1-7.1,7.3-12.9l13.5,2.8c-0.6,3.1-1.6,6.1-2.9,8.9c-1.3,2.8-2.9,5.3-4.8,7.4
		c-1.9,2.1-4.1,4-6.5,5.6c-2.4,1.6-5.2,2.9-8.5,3.9s-6.9,1.6-11,1.6c-4.9,0-9.5-0.9-13.9-2.7c-4.4-1.8-8.2-4.3-11.5-7.6
		c-3.3-3.3-5.9-7.1-7.7-11.5c-1.8-4.4-2.8-9-2.8-13.9c0-4.8,0.9-9.4,2.8-13.8c1.8-4.4,4.4-8.2,7.7-11.5c3.3-3.3,7.1-5.8,11.5-7.7
		c4.4-1.8,9-2.8,13.9-2.8c8.3,0,15.6,2.4,21.8,7.1c6.2,4.8,10.2,11.2,11.9,19.2l-13.5,3.8c-1.2-5.6-3.7-9.9-7.3-12.8
		c-3.6-2.9-7.9-4.3-12.9-4.3c-3,0-5.8,0.6-8.5,1.7c-2.7,1.1-5,2.7-7,4.8s-3.6,4.5-4.7,7.3c-1.1,2.8-1.7,5.7-1.7,8.9
		c0,3.1,0.6,6.1,1.7,8.9c1.1,2.8,2.7,5.2,4.7,7.3s4.4,3.7,7,4.8c2.7,1.2,5.5,1.7,8.5,1.7C1129,309.8,1133.3,308.4,1136.9,305.6z"/>
</g>
<g class="st1">
	<path class="st0" d="M1217.9,321.3l-5.9-14.6h-30.2l-6,14.6h-15l29.6-68.4h13l29.6,68.4H1217.9z M1196.9,269.7l-10,24.4h19.9
		L1196.9,269.7z"/>
</g>
<g class="st1">
	<path class="st0" d="M1266.6,265.4v55.8h-13.9v-55.8h-22.8v-12.6h59.4v12.6H1266.6z"/>
</g>
<g class="st1">
	<path class="st0" d="M1299.4,321.3v-68.4h13.9v68.4H1299.4z"/>
	<path class="st0" d="M1375.5,254.1c4.4,1.8,8.3,4.4,11.6,7.7c3.3,3.3,5.9,7.1,7.7,11.5c1.8,4.4,2.8,9,2.8,13.8s-0.9,9.4-2.8,13.8
		c-1.8,4.4-4.4,8.2-7.7,11.4c-3.3,3.3-7.2,5.8-11.6,7.7c-4.4,1.8-9.1,2.8-14,2.8s-9.6-0.9-14-2.8s-8.3-4.4-11.6-7.7
		s-5.9-7.1-7.7-11.4c-1.8-4.4-2.8-8.9-2.8-13.8s0.9-9.4,2.8-13.8c1.8-4.4,4.4-8.2,7.7-11.5s7.2-5.9,11.6-7.7s9.1-2.8,14-2.8
		S1371,252.3,1375.5,254.1z M1370.1,308.1c2.7-1.1,5.1-2.7,7.1-4.7s3.6-4.5,4.7-7.2c1.1-2.8,1.7-5.7,1.7-8.9s-0.6-6.1-1.7-8.9
		c-1.1-2.8-2.7-5.3-4.7-7.3s-4.4-3.7-7.1-4.8c-2.7-1.1-5.6-1.7-8.6-1.7c-3,0-5.9,0.6-8.6,1.7c-2.7,1.1-5.1,2.7-7.1,4.8
		c-2,2.1-3.6,4.5-4.7,7.3c-1.1,2.8-1.7,5.8-1.7,8.9s0.6,6.1,1.7,8.9c1.1,2.8,2.7,5.2,4.7,7.2c2,2,4.4,3.6,7.1,4.7
		c2.7,1.1,5.6,1.7,8.6,1.7C1364.5,309.7,1367.3,309.2,1370.1,308.1z"/>
</g>
<g class="st1">
	<path class="st0" d="M1473.2,321.3h-11.6l-37.9-43.9v43.9h-13.9v-68.4h11.6l37.9,45.1v-45.1h13.9V321.3z"/>
</g>
</svg>
